<svg width="88" height="90" viewBox="0 0 88 90" fill="none" xmlns="http://www.w3.org/2000/svg">
<path d="M44.264 2.47602C44.2599 1.96969 44.2652 1.4772 44.2794 1C44.2794 1.49718 44.2742 1.98919 44.264 2.47602C44.3874 17.7638 53.1189 45.6567 88 45.6567C73.5581 45.8013 44.8045 54.5161 44.2865 88.0764C44.2879 88.3903 44.2855 88.6983 44.2794 89C44.2794 88.6901 44.2817 88.3822 44.2865 88.0764C44.2188 73.6225 35.8992 46.6479 2.83937 45.6833C2.20408 45.6899 1.58999 45.6806 1 45.6567C1.62147 45.6567 2.23456 45.6657 2.83937 45.6833C17.5301 45.5304 43.5405 36.8555 44.264 2.47602Z" fill="url(#paint0_linear_137_4612)"/>
<path d="M44.2794 1C43.8378 15.8856 51.9636 45.6567 88 45.6567C73.4265 45.8027 44.2794 54.6756 44.2794 89C44.5737 74.5522 36.3298 45.6567 1 45.6567C15.4265 46.2405 44.2794 38.1264 44.2794 1Z" stroke="#0D0D0F"/>
<defs>
<linearGradient id="paint0_linear_137_4612" x1="1" y1="1" x2="101.235" y2="20.3152" gradientUnits="userSpaceOnUse">
<stop stop-color="#B8E1E8"/>
<stop offset="1" stop-color="#D4ECBA"/>
</linearGradient>
</defs>
</svg>
