<svg width="15" height="15" viewBox="0 0 15 15" fill="none" xmlns="http://www.w3.org/2000/svg">
<path d="M2.73831 12.2092C2.29901 12.1112 1.89384 11.9493 1.53131 11.698C0.554629 11.0206 0.0257694 10.0834 0.0129744 8.89479C-0.00835062 7.06292 -0.00408562 5.23105 0.00870937 3.39919C0.0257694 1.68235 1.24129 0.297797 2.94303 0.0379278C3.11363 0.0123668 3.29276 0.00384653 3.46762 0.00384653C6.15884 0.00384653 8.85005 -0.000413627 11.5413 0.00384653C13.2089 0.00810668 14.5737 1.10723 14.9191 2.73034C14.9703 2.97317 14.9916 3.22452 14.9916 3.47587C14.9959 5.25236 15.0002 7.0331 14.9959 8.80958C14.9916 10.5136 13.8657 11.8939 12.2066 12.2134C11.972 12.2603 11.7332 12.2688 11.4943 12.2688C10.2959 12.2731 9.10169 12.2731 7.90322 12.2688C7.77527 12.2688 7.66865 12.2986 7.56202 12.3711C6.3337 13.1933 5.10538 14.0112 3.87706 14.8334C3.71926 14.9399 3.55292 15.0166 3.35673 14.9953C2.98994 14.957 2.74684 14.6843 2.74257 14.3009C2.73831 13.6747 2.74257 13.0442 2.74257 12.4179C2.73831 12.354 2.73831 12.2901 2.73831 12.2092ZM4.09458 13.0442C4.17135 12.9973 4.21826 12.9632 4.26518 12.9334C5.18215 12.3242 6.09913 11.715 7.01184 11.0973C7.20803 10.9652 7.40422 10.9098 7.63879 10.9098C8.94388 10.9141 10.2447 10.9141 11.5498 10.9098C12.744 10.9056 13.6354 10.0109 13.6354 8.81384C13.6354 7.02458 13.6354 5.23531 13.6354 3.44605C13.6354 2.26173 12.7397 1.36284 11.5541 1.36284C8.85858 1.36284 6.15884 1.36284 3.46336 1.36284C2.27342 1.36284 1.37777 2.26173 1.37777 3.45457C1.37777 5.23957 1.37777 7.02032 1.37777 8.80532C1.37777 9.9726 2.20945 10.8459 3.37806 10.9056C3.85147 10.9311 4.09458 11.1825 4.09884 11.6554C4.09458 12.1069 4.09458 12.5543 4.09458 13.0442Z" fill="#BCA3EA"/>
<path d="M7.4861 5.45638C6.13836 5.45638 4.79489 5.45638 3.44715 5.45638C2.93961 5.45638 2.60694 4.99628 2.77754 4.54044C2.8799 4.26353 3.09315 4.12295 3.38317 4.09313C3.43435 4.08887 3.4898 4.08887 3.54098 4.08887C6.18101 4.08887 8.81678 4.08887 11.4568 4.08887C11.572 4.08887 11.6914 4.09739 11.8023 4.13147C12.1179 4.22945 12.3013 4.5447 12.2544 4.88552C12.2117 5.19651 11.9302 5.44786 11.5976 5.45212C11.2137 5.46064 10.8299 5.45212 10.4503 5.45212C9.46506 5.45638 8.47558 5.45638 7.4861 5.45638Z" fill="#BCA3EA"/>
<path d="M7.48544 8.17895C6.58979 8.17895 5.69841 8.18321 4.80703 8.17895C4.32935 8.17469 4.01374 7.78701 4.12036 7.3397C4.18434 7.05853 4.43171 6.84552 4.72173 6.82848C4.76438 6.82422 4.80703 6.82422 4.84968 6.82422C6.61965 6.82422 8.39389 6.82422 10.1639 6.82422C10.5605 6.82422 10.8292 7.02871 10.8974 7.37378C10.9785 7.78275 10.6842 8.16617 10.2662 8.17895C9.8909 8.19173 9.51132 8.18321 9.13173 8.18321C8.58155 8.17895 8.03563 8.17895 7.48544 8.17895Z" fill="#BCA3EA"/>
</svg>
