<svg width="13" height="13" viewBox="0 0 13 13" fill="none" xmlns="http://www.w3.org/2000/svg">
<path d="M0 2.81703C0.0698925 2.59761 0.108016 2.36229 0.212854 2.15877C0.571847 1.44326 1.16593 1.06165 1.9697 1.01713C2.19526 1.00441 2.424 1.01395 2.66544 1.01395C2.66544 0.85177 2.66544 0.699128 2.66544 0.549667C2.66544 0.228483 2.87512 0.00269989 3.17058 -0.000480154C3.46603 -0.000480154 3.67571 0.225303 3.67889 0.546487C3.67889 0.699129 3.67889 0.84859 3.67889 1.00759C4.44135 1.00759 5.1911 1.00759 5.9631 1.00759C5.9631 0.83905 5.95674 0.667328 5.9631 0.495606C5.97581 0.145802 6.30621 -0.0831612 6.63343 0.0281402C6.83358 0.094921 6.97018 0.279363 6.97654 0.498786C6.98289 0.664148 6.97654 0.82951 6.97654 1.00441C7.74536 1.00441 8.50782 1.00441 9.28617 1.00441C9.28617 0.83587 9.27981 0.664148 9.28617 0.492426C9.30523 0.094921 9.72776 -0.130862 10.0613 0.0790208C10.217 0.177602 10.2933 0.320704 10.2996 0.501966C10.3028 0.667328 10.2996 0.82951 10.2996 1.01395C10.4489 1.01395 10.5919 1.01713 10.7317 1.01395C11.0494 1.00759 11.3639 1.02985 11.6657 1.14433C12.4218 1.42418 12.9682 2.15877 12.9809 2.9665C12.9968 3.95549 12.9873 4.94766 12.9841 5.93665C12.9841 6.22922 12.7586 6.44864 12.479 6.44864C12.1931 6.44864 11.9738 6.22604 11.9738 5.92711C11.9707 4.989 11.9738 4.04771 11.9738 3.1096C11.9738 2.67393 11.7959 2.34003 11.3988 2.14287C11.2845 2.08563 11.151 2.05065 11.0239 2.04429C10.7889 2.02839 10.5506 2.0411 10.2996 2.0411C10.2996 2.19375 10.2996 2.34639 10.2996 2.49585C10.2964 2.82657 10.0868 3.05554 9.78494 3.05236C9.48949 3.04918 9.28617 2.82339 9.28299 2.49903C9.28299 2.35275 9.28299 2.20329 9.28299 2.04747C8.51417 2.04747 7.75171 2.04747 6.97336 2.04747C6.97336 2.18739 6.97336 2.32413 6.97336 2.46405C6.97336 2.82021 6.77639 3.05236 6.46823 3.05236C6.16007 3.05554 5.95992 2.82339 5.95674 2.46723C5.95674 2.32731 5.95674 2.19057 5.95674 2.04429C5.19428 2.04429 4.44453 2.04429 3.67253 2.04429C3.67253 2.21283 3.67889 2.38455 3.67253 2.55309C3.65982 2.9029 3.32942 3.13186 3.00538 3.02374C2.80205 2.95696 2.66544 2.76933 2.66227 2.54037C2.65909 2.37819 2.66227 2.21283 2.66227 2.0252C2.36364 2.04111 2.07136 2.02202 1.79497 2.07609C1.34066 2.15241 1.04203 2.54991 1.01662 3.02374C1.01344 3.05872 1.01662 3.09052 1.01662 3.1255C1.01662 5.71405 1.01662 8.30578 1.01662 10.8943C1.01662 11.3332 1.18817 11.6798 1.59164 11.8706C1.74731 11.9437 1.93157 11.9755 2.1063 11.9787C3.35484 11.9883 4.6002 11.9851 5.84873 11.9819C6.01393 11.9819 6.16007 12.0169 6.27761 12.1377C6.52224 12.3858 6.44599 12.7992 6.13148 12.9486C6.09335 12.9677 6.05523 12.9836 6.01711 12.9995C4.6129 12.9995 3.2087 12.9995 1.8045 12.9995C1.78543 12.9932 1.76637 12.9804 1.74731 12.9773C1.0325 12.8628 0.514663 12.478 0.203324 11.8293C0.108016 11.6321 0.0698925 11.4095 0.00317693 11.1964C0 8.40436 0 5.61229 0 2.81703Z" fill="white"/>
<path d="M9.6676 13C9.3785 12.9268 9.07987 12.8823 8.8003 12.7805C7.48188 12.2972 6.64952 10.8375 6.89414 9.4574C7.11018 8.23944 7.80592 7.39673 8.97821 7.01831C10.1823 6.62716 11.2688 6.91336 12.1456 7.82604C12.9526 8.66875 13.194 9.6959 12.8541 10.8089C12.4919 11.9951 11.6595 12.7106 10.4364 12.9523C10.3506 12.9682 10.2617 12.9841 10.1759 13C10.0044 13 9.83598 13 9.6676 13ZM11.9741 9.92486C11.9741 8.79277 11.0432 7.86738 9.91541 7.87056C8.78759 7.87374 7.86946 8.79595 7.86628 9.92168C7.86311 11.0538 8.78759 11.9823 9.91858 11.9823C11.0496 11.9855 11.9772 11.057 11.9741 9.92486Z" fill="white"/>
<path d="M3.67754 5.33303C3.67754 5.61287 3.44562 5.84183 3.16605 5.83865C2.88648 5.83547 2.66092 5.60333 2.6641 5.32348C2.66727 5.05 2.89601 4.82422 3.16923 4.82422C3.4488 4.82422 3.67754 5.05318 3.67754 5.33303Z" fill="white"/>
<path d="M5.38258 5.83843C5.10301 5.84161 4.87427 5.60947 4.87109 5.33281C4.87109 5.05296 5.10301 4.824 5.3794 4.82718C5.65262 4.83036 5.87818 5.05296 5.88453 5.32645C5.89089 5.60311 5.66215 5.83843 5.38258 5.83843Z" fill="white"/>
<path d="M8.0916 5.33599C8.0916 5.61583 7.85968 5.84479 7.58011 5.84161C7.30054 5.83843 7.07498 5.60629 7.07816 5.32645C7.08451 5.05296 7.31007 4.82718 7.58329 4.82718C7.86604 4.824 8.09478 5.05614 8.0916 5.33599Z" fill="white"/>
<path d="M9.79347 5.83868C9.5139 5.83868 9.28516 5.60972 9.28516 5.32988C9.28516 5.05003 9.51707 4.82107 9.79664 4.82425C10.0699 4.82743 10.2954 5.05321 10.2986 5.3267C10.3018 5.60654 10.073 5.83868 9.79347 5.83868Z" fill="white"/>
<path d="M3.16615 7.03421C3.44572 7.03103 3.67763 7.26 3.67763 7.53984C3.67763 7.81968 3.44889 8.04865 3.16932 8.04865C2.89611 8.04865 2.66737 7.82286 2.66419 7.54938C2.65784 7.26954 2.88658 7.03739 3.16615 7.03421Z" fill="white"/>
<path d="M5.38331 8.04839C5.10374 8.05157 4.875 7.81943 4.875 7.54277C4.875 7.26292 5.10692 7.03396 5.38649 7.03714C5.6597 7.04032 5.88526 7.26292 5.88844 7.53641C5.89162 7.81307 5.66288 8.04521 5.38331 8.04839Z" fill="white"/>
<path d="M3.6778 9.75959C3.67144 10.0394 3.43635 10.262 3.15678 10.2557C2.87721 10.2493 2.65483 10.0108 2.66436 9.73097C2.67389 9.45749 2.9058 9.23807 3.17902 9.24125C3.45541 9.24761 3.68415 9.48293 3.6778 9.75959Z" fill="white"/>
<path d="M5.3794 10.2586C5.09983 10.2586 4.87109 10.0296 4.87109 9.7498C4.87109 9.46996 5.10301 9.24099 5.38258 9.24417C5.6558 9.24735 5.88136 9.47314 5.88453 9.74662C5.88771 10.0265 5.65897 10.2554 5.3794 10.2586Z" fill="white"/>
<path d="M10.4276 9.42196C10.5292 9.42196 10.6087 9.41878 10.6881 9.42196C10.9613 9.44104 11.1678 9.66364 11.1646 9.93395C11.1614 10.1979 10.9549 10.4205 10.6849 10.43C10.418 10.4396 10.1512 10.4396 9.88749 10.43C9.63016 10.4205 9.42366 10.2138 9.4173 9.95303C9.40777 9.5905 9.40777 9.2248 9.4173 8.86227C9.42366 8.58561 9.64922 8.37891 9.91926 8.37891C10.1893 8.37891 10.4117 8.58879 10.4244 8.86227C10.4339 9.04353 10.4276 9.2248 10.4276 9.42196Z" fill="white"/>
</svg>
