<svg width="154" height="99" viewBox="0 0 154 99" fill="none" xmlns="http://www.w3.org/2000/svg">
<path d="M14.4805 90.8971C15.2404 82.1404 21.1981 73.1513 30.9488 72.4611C38.4122 71.9328 46.1161 76.2653 51.7131 80.5492C52.6369 81.2562 60.0458 87.3233 55.2317 88.7493C46.4287 91.3567 39.8759 84.5925 37.7279 76.6734C34.5364 64.9072 38.8673 53.3091 47.6368 45.0664C58.5155 34.8411 77.1617 25.6199 91.7265 32.9571C98.518 36.3785 101.833 41.022 103.738 48.1977C105.254 53.9101 106.056 61.0596 101.237 65.7138C93.306 73.3734 83.8693 65.845 79.7358 58.2589C71.3599 42.887 77.9837 21.5066 93.4359 13.4479C106.99 6.37927 122.635 3.97565 137.714 3.03937" stroke="white" stroke-width="2" stroke-linecap="round"/>
</svg>
