<svg width="19" height="19" viewBox="0 0 19 19" fill="none" xmlns="http://www.w3.org/2000/svg">
<path d="M17.9222 18.849C17.675 18.849 17.4278 18.743 17.2159 18.5662L0.334334 1.67017C-0.0541531 1.28135 -0.0541531 0.680438 0.334334 0.291616C0.722822 -0.0972054 1.3232 -0.0972054 1.71169 0.291616L18.5933 17.1877C18.9817 17.5765 18.9817 18.1774 18.5933 18.5662C18.4167 18.7783 18.1694 18.849 17.9222 18.849Z" fill="#333333"/>
<path d="M1.00552 18.849C0.7583 18.849 0.511081 18.743 0.299178 18.5662C-0.0893094 18.1774 -0.0893094 17.5765 0.299178 17.1877L17.1807 0.291616C17.5692 -0.0972054 18.1696 -0.0972054 18.5581 0.291616C18.9466 0.680438 18.9466 1.28135 18.5581 1.67017L1.71186 18.5662C1.49996 18.7783 1.25274 18.849 1.00552 18.849Z" fill="#333333"/>
</svg>
