<svg width="78" height="78" viewBox="0 0 78 78" fill="none" xmlns="http://www.w3.org/2000/svg">
<circle cx="39" cy="39" r="39" fill="#373737"/>
<path d="M54.53 25V24.5H54.03H53.4058C50.6746 24.5 48.2804 24.9852 46.2383 25.9741C44.1466 26.9266 42.5553 28.6636 41.4474 31.1256C40.3353 33.597 39.7983 37.0375 39.7983 41.4067V43.2792C39.7983 45.8653 40.1271 47.9142 40.8281 49.3799C41.5133 50.8126 42.4099 51.8601 43.5419 52.4594C44.6236 53.0321 45.7738 53.32 46.9858 53.32C48.8812 53.32 50.4226 52.7153 51.5445 51.4645C52.7091 50.2327 53.2817 48.6801 53.2817 46.8458C53.2817 44.8995 52.6822 43.3274 51.4313 42.2025C50.2591 41.0355 48.7634 40.4608 46.9858 40.4608C46.6536 40.4608 46.3149 40.4755 45.97 40.5047V38.9992C45.97 36.894 46.2043 35.2031 46.6536 33.9083C47.1552 32.5739 47.9189 31.6359 48.9305 31.0502C49.9568 30.4561 51.3756 30.1367 53.2275 30.1367H54.03H54.53V29.6367V25ZM37.2317 25V24.5H36.7317H36.1075C33.3762 24.5 30.982 24.9852 28.9399 25.9741C26.8483 26.9266 25.2569 28.6636 24.149 31.1256C23.0369 33.597 22.5 37.0375 22.5 41.4067V43.2792C22.5 45.8653 22.8288 47.9142 23.5298 49.3799L23.9808 49.1642L23.5298 49.3799C24.215 50.8126 25.1116 51.8601 26.2436 52.4594C27.3253 53.0321 28.4755 53.32 29.6875 53.32C31.5828 53.32 33.1242 52.7153 34.2462 51.4646C35.4107 50.2327 35.9833 48.6801 35.9833 46.8458C35.9833 44.8995 35.3839 43.3274 34.1329 42.2025C32.9608 41.0355 31.465 40.4608 29.6875 40.4608C29.3552 40.4608 29.0166 40.4755 28.6717 40.5047V38.9992C28.6717 36.894 28.9059 35.2031 29.3553 33.9083C29.8568 32.5739 30.6206 31.6359 31.6322 31.0502C32.6584 30.4561 34.0772 30.1367 35.9292 30.1367H36.7317H37.2317V29.6367V25Z" fill="#BCA3EA" stroke="#BCA3EA"/>
</svg>
