<svg width="12" height="15" viewBox="0 0 12 15" fill="none" xmlns="http://www.w3.org/2000/svg">
<path d="M1.76295 14.9996C1.56168 14.9336 1.35347 14.8896 1.16261 14.7978C0.399159 14.4272 -0.0276769 13.6273 0.00355506 12.743C0.0417274 11.6936 0.277702 10.7103 0.767002 9.7966C1.42634 8.56373 2.37024 7.65741 3.59523 7.07767C3.67504 7.04098 3.75486 7.00428 3.85202 6.95658C2.68256 5.9512 2.17591 4.67062 2.43617 3.10017C2.58886 2.18285 3.03999 1.42698 3.72709 0.847238C5.24358 -0.42967 7.34653 -0.216852 8.60969 1.1738C9.36619 2.00673 9.70974 3.01211 9.61952 4.16426C9.52929 5.31642 9.0157 6.23374 8.14815 6.94924C8.33554 7.04098 8.50558 7.11436 8.67215 7.20609C10.1505 8.006 11.1638 9.24254 11.7016 10.9011C11.9272 11.5945 12.0348 12.3137 11.9931 13.0476C11.9376 14.0163 11.2262 14.8235 10.317 14.9703C10.2927 14.974 10.2684 14.9886 10.2407 14.9996C7.41246 14.9996 4.58771 14.9996 1.76295 14.9996ZM6.00703 13.8475C7.30489 13.8475 8.60275 13.8401 9.89714 13.8512C10.5704 13.8548 10.959 13.3338 10.9035 12.7577C10.8827 12.5486 10.8792 12.3394 10.848 12.1303C10.6328 10.6185 9.9249 9.41133 8.7242 8.5784C7.17302 7.50331 5.51078 7.3602 3.84508 8.23349C2.06139 9.16916 1.15914 10.7506 1.0932 12.8568C1.08973 13.0072 1.1279 13.1723 1.1869 13.3044C1.36388 13.6934 1.68661 13.8438 2.08221 13.8438C3.39395 13.8475 4.70223 13.8475 6.00703 13.8475ZM5.99314 6.53462C7.39164 6.54195 8.54028 5.33843 8.54722 3.85238C8.55416 2.37733 7.4194 1.16647 6.00703 1.15179C4.62241 1.13344 3.45989 2.35531 3.45295 3.8377C3.44601 5.31275 4.59118 6.52728 5.99314 6.53462Z" fill="#BCA3EA"/>
</svg>
